# xmcd
#
# Track frame offsets:
#	150
#	9582
#	18475
#	29222
#	38060
#	52997
#	63210
#	76167
#	87435
#	99545
#	112525
#	122445
#	131892
#	142355
#	154834
#
# Disc length: 2227
#
# Revision: 2
# Processed by: cddbd v1.5.1PL0 Copyright (c) Steve Scherf et al.
# Submitted via: CDex 1.40Release
# Normalized: r1:DSETVAR1
#
DISCID=c108b10f
DTITLE=Various Artist - Country and Western Highlights - Vol. 3
DYEAR=1997
DGENRE=Country
TTITLE0=Bob Luman - Let¥s Think About Living
TTITLE1=Eddi Bond - Canﬂt Win For Losing
TTITLE2=Kent Westbury - I¥ve Been Under The Weather
TTITLE3=Bobby Helms - Just A Little Lonesome
TTITLE4=Sleepy La Beef - Dixie Rebel Saints
TTITLE5=Don Rader - You Win Again
TTITLE6=Brenda Lee - Always On My Again
TTITLE7=Bill Watkins - Winding Road
TTITLE8=Ernes Tubb - Wabash Connonball
TTITLE9=Bill Monroe - Cheyenne
TTITLE10=Webb Pierc - Bye, Bye, Love
TTITLE11=Rusty York - Good Night Cincinnati, Good Morning Tennessee
TTITLE12=Bob Luman - I Like Your Kind Of Love
TTITLE13=Sanford Clark - The Fool
TTITLE14=Patsy Cline - Crazy
EXTD=YEAR: 1997 ID3G: 2
EXTT0=
EXTT1=
EXTT2=
EXTT3=
EXTT4=
EXTT5=
EXTT6=
EXTT7=
EXTT8=
EXTT9=
EXTT10=
EXTT11=
EXTT12=
EXTT13=
EXTT14=
PLAYORDER=
